<svg width="34" height="36" viewBox="0 0 34 36" fill="none" xmlns="http://www.w3.org/2000/svg">
<g clip-path="url(#clip0_3_145)" filter="url(#filter0_d_3_145)">
<path d="M19.6667 10.6666V7.99998C19.6667 7.29274 19.3857 6.61446 18.8856 6.11436C18.3855 5.61426 17.7072 5.33331 17 5.33331H7.66667C6.95942 5.33331 6.28115 5.61426 5.78105 6.11436C5.28095 6.61446 5 7.29274 5 7.99998V24C5 24.7072 5.28095 25.3855 5.78105 25.8856C6.28115 26.3857 6.95942 26.6666 7.66667 26.6666H17C17.7072 26.6666 18.3855 26.3857 18.8856 25.8856C19.3857 25.3855 19.6667 24.7072 19.6667 24V21.3333" stroke="#62618F" stroke-width="2" stroke-linecap="round" stroke-linejoin="round"/>
<path d="M10.3333 16H29M29 16L25 12M29 16L25 20" stroke="#62618F" stroke-width="2" stroke-linecap="round" stroke-linejoin="round"/>
</g>
<defs>
<filter id="filter0_d_3_145" x="-3" y="0" width="40" height="40" filterUnits="userSpaceOnUse" color-interpolation-filters="sRGB">
<feFlood flood-opacity="0" result="BackgroundImageFix"/>
<feColorMatrix in="SourceAlpha" type="matrix" values="0 0 0 0 0 0 0 0 0 0 0 0 0 0 0 0 0 0 127 0" result="hardAlpha"/>
<feOffset dy="4"/>
<feGaussianBlur stdDeviation="2"/>
<feComposite in2="hardAlpha" operator="out"/>
<feColorMatrix type="matrix" values="0 0 0 0 0 0 0 0 0 0 0 0 0 0 0 0 0 0 0.25 0"/>
<feBlend mode="normal" in2="BackgroundImageFix" result="effect1_dropShadow_3_145"/>
<feBlend mode="normal" in="SourceGraphic" in2="effect1_dropShadow_3_145" result="shape"/>
</filter>
<clipPath id="clip0_3_145">
<rect width="32" height="32" fill="white" transform="translate(1)"/>
</clipPath>
</defs>
</svg>
